@startuml domain_model
    skinparam classAttributeIconSize 0
    skinparam style strictuml

    class "TreeData" as TD <<type>> {}
    class "Reader" as R <<type>> {}
    class "Displayer" as D <<type>> {}
    class "**Tree**" as T <<type>> {
        + LoadData()
        + CloseData()
    }
    class "**TreeView**" as TV <<type>> {}

    TD " * " --right-- R: reads < 
    R --right-- T: passes content >
    R --right-- T: instructs <
    T --right-- D: updates >
    D -right- TV: updates >
@enduml



@startuml class_diagram
    skinparam ClassAttributeIconSize 0
    skinparam style strictuml
    skinparam linetype ortho

    abstract "**TWB**" as TWB {
        - branches : list
        + add_branch()
        + move_branch()
        + remove_branch()
        + rename_branch()
    }
    class "**Branch**" as Branch {
        +attributes : dictionary
    }
    class "**Tree**" as Tree {}

    TWB <|-- Branch 
    TWB <|--- Tree : \t\t\t\t\t\t
    Tree o-left- " 0..*" Branch  : \t\t\t\t\t
    Branch o-down- "0..*" Branch

    class "**TreeManager**" as TreeManager {
        # trees : list
        + load_xml()
        + save_xml()
        + create_tree()
        + destroy_tree()
    }

    class "**TreeApp**" as TreeApp {}
    class "**Treeview**" as Treeview {}

    TreeManager -left-> Tree
    TreeApp -right-> Treeview

    class "**Xml**" as Xml {}

    TreeManager <-right-TreeApp
    Xml <-- TreeManager

    class "**EditWindow**" as EditWindow {
        - element : Branch
        + confirm()
        - cancel()
    }
    EditWindow <-- Treeview
@enduml


@startuml treeview_sequence_diagram
skinparam Shadowing false
skinparam Style strictuml

    User -> Treeview: Select branch
    activate Treeview
    create PopUpMenu
    Treeview -> PopUpMenu: Create
    PopUpMenu -> Treeview: Select action
    create EditWindow
    destroy PopUpMenu

    create EditWindow
    Treeview -> EditWindow: Create
    User -> EditWindow: Set entries, Confirm
    Branch <- EditWindow: Update
    destroy EditWindow

@enduml


@startuml error_message_sequence_diagram
skinparam Shadowing false
skinparam Style strictuml

    actor "User" as User
    participant "<u>: Treeview</u>" as Treeview
    activate Treeview
    participant "<u>: Branch</u>" as Branch

    User -> Treeview: Select action
    Treeview -> Branch: Call action on branch
    group Action fails
        Branch -> Treeview: Error message

        participant "<u>: MessageBox</u>" as MessageBox
        create MessageBox

        Treeview -> MessageBox: Create
        User -> MessageBox: Close
        destroy MessageBox
    end
@enduml


@startuml app_class_diagram
skinparam Style strictuml
skinparam Linetype ortho
    
    class App
    class Tree
    class TreeToXml
    class Analyst
    class TreeManager
    class Treeview


    Treeview -up-> Tree
    TreeToXml -up-> Tree
    Analyst -up-> Tree

    TreeManager -up-> TreeToXml
    App -up-> TreeManager
    App -up-> Analyst
    App -up-> Treeview

@enduml


@startuml app_class_diagram_2
skinparam Linetype ortho
skinparam Style strictuml

    class App
    class TreeList
    class Tree
    class TreeToXml
    class Analyst
    class TreeManager
    class Treeview


    Treeview -up-> Tree
    TreeToXml -up-> Tree
    Analyst -up-> Tree

    TreeManager -up-> TreeToXml
    App -up-> TreeManager
    App -up-> Analyst
    App -up-> Treeview

    Analyst -> TreeList
    TreeManager -> TreeList
    Treeview -> TreeList

@enduml



@startuml treeitem_template_sequence_diagram
skinparam Style strictuml

    actor User order 1

    group Start app
    create participant "<u> App:</u>" as App order 0
    User -> App: Start
    create participant "<u> Manager:</u>" as Manager order 2
    App -> Manager: Create, send templates
    create participant "<u> Editor:</u>" as Editor order 3
    App -> Editor: Create
    Manager -> Editor: Send actions
    end
    |||

    group Create new tree
    User -> Manager: Ask for new tree
    create "<u> Tree:Tree X </u>" as TreeX order 4
    Manager -> TreeX: Create
    end
    |||
    group Load tree into Editor
        User -> Manager: Ask for tree editing
        Manager -> Editor: Call for tree load
        TreeX -> Editor: Load into editor
    end
    |||
    group Add new branch to tree
        User -> Editor: Ask for new branch
        Editor -> TreeX: Create new branch
        create "<u> Branch:Branch A </u>" as BranchA order 5
        TreeX -> BranchA: Create
    end

@enduml


@startuml app_class_diagram_3
skinparam style strictuml
skinparam ClassAttributeIconSize 0
skinparam Linetype ortho

    !$attr_color = "#LightGrey"
    !$template_color = "#LightYellow"
    !$editor_color = "#SteelBlue"
    !$displayer_color = "#Violet"
    !$imp_exp_color = "#Yellow"
    !$tree_item_color = "#LightGrey"
    !$creator_color = "#SandyBrown"
    !$app_color = "#OrangeRed"
    !$time_color = "#PaleGreen"

    class Attribute <<abstract>> $attr_color {
        +valid_value()
        +set()
        +raw_value()
        +formatted_value()
    }
    class DateAttr $attr_color
    class CurrencyAttr $attr_color
    class NameAttr $attr_color
    class Date $attr_color
    class Currency $attr_color
    NameAttr -down-|> Attribute
    DateAttr -down-|> Attribute
    CurrencyAttr -down-|> Attribute
    DateAttr -right-> Date
    CurrencyAttr -right-> Currency
    ' DateAttr -up[hidden]->NameAttr
    ' CurrencyAttr -up[hidden]->DateAttr
    class DependentAttr $attr_color 
    DependentAttr -down-|> Attribute

    class AttributeFactory $creator_color {
        +new(type:str)
    }
    AttributeFactory --> NameAttr
    AttributeFactory --> DateAttr
    AttributeFactory --> CurrencyAttr


    class TreeItem $tree_item_color {
        +rename(new_name:str)
        +move(parent:TreeItem)
        +insert(item:TreeItem)
        +copy()
        +remove()
        +attribute(label:str)
        +list_attibutes()
        +list_children_type()
        #edited()
        #moved()
        #removed()
    }

    TreeItem o-right->"1..*" Attribute

    class Editor $editor_color {
        -loc_code:LocaleCode
    }
    class RightClickMenu $editor_color
    Editor -left-> RightClickMenu

    class NewTemplate $template_color 
    class ItemsSetup  $app_color
    class Application $app_color {
        -loc_code:LocaleCode
    }

    class TreeItemCreator $creator_color {
        +new()
    }
    TreeItemCreator --> TreeItem
    Application -> ItemsSetup
    Application -down--> Editor


    class DateManager <<abstract>> $time_color {
        -loc_code:LocaleCode
        +check_date()
    }
  
    class DeadlineManager $time_color {
        -loc_code:LocaleCode
        -deadlines:List
        +check_date()
        +set_notification()
        #notify()
    }
    class EventPlanner $time_color {
        -loc_code:LocaleCode
        -planned_events:List
        +check_date()
        +confirm()
        +dismiss()
        #plan_event(date:Date)
    }
    DeadlineManager -[hidden]down->EventPlanner
    DeadlineManager -right--|> DateManager
    EventPlanner -right--|> DateManager

    ItemsSetup -> DeadlineManager
    ItemsSetup -> EventPlanner

    ItemsSetup --> NewTemplate
    ItemsSetup -right-> TreeItemCreator

    Editor -down--> TreeItem

    class EditorTools $editor_color{
        +new()
    }
    Editor -> EditorTools
    EditorTools --> TreeItemCreator

    TreeItemCreator -right--> AttributeFactory

    class Converter <<abstract>> $imp_exp_color

    class XML_Converter $imp_exp_color
    class BIN_Converter $imp_exp_color
    BIN_Converter -[hidden]down-> XML_Converter
    BIN_Converter -[hidden]right---> Manager
    XML_Converter -right-|> Converter
    BIN_Converter -right-|> Converter

    class Manager $editor_color {
        -loc_code:LocaleCode
    }
    class ItemCreator <<interface>> $editor_color{
        +new()
    } 
    class ManagerTools $editor_color{
        -selection:List[ManagerItem]
        +new()
        +load()
        +save()
        +select()
        +deselect()
        +remove()
    }
    class ManagedItem <<interface>> {
        +rename()
        +remove()
        +copy()
    }

    ManagerTools -> ManagedItem
    ManagerTools -> ItemCreator
    ManagerTools -left-> Converter
    ItemCreator -> TreeItemCreator
    TreeItem -left-|> ManagedItem

    Manager -down-> ManagerTools
    Manager -right--> RightClickMenu
    Application -down-> Manager
    
    class Properties $displayer_color {
        -loc_code:LocaleCode
        +display()
        +clear()
    }
    Application -left-> Properties
    
    class Graph $displayer_color {
        -loc_code:LocaleCode
        +draw(date:Date)
    }
    Application -left-> Graph

@enduml